<?xml version="1.0" encoding="UTF-8"?>
<svg width="138px" height="138px" viewBox="0 0 138 138" version="1.1" xmlns="http://www.w3.org/2000/svg" xmlns:xlink="http://www.w3.org/1999/xlink">
    <!-- Generator: Sketch 52.5 (67469) - http://www.bohemiancoding.com/sketch -->
    <title>Shape</title>
    <desc>Created with Sketch.</desc>
    <g id="Equius-Homepage-Options" stroke="none" stroke-width="1" fill="none" fill-rule="evenodd">
        <g id="Equius-Homepage-R8" transform="translate(-1229.000000, -2869.000000)" fill="#FFFFFF" fill-rule="nonzero">
            <path d="M1357.74355,2903.50529 C1338.69315,2870.50855 1296.49894,2859.20234 1263.50521,2878.25649 C1230.50886,2897.30448 1219.20235,2939.49743 1238.25627,2972.49286 C1257.30403,3005.48961 1299.49693,3016.79757 1332.49109,2997.74519 C1365.48789,2978.6906 1376.79967,2936.49985 1357.74355,2903.50529 Z M1325.49558,2985.62142 C1299.19744,3000.81018 1265.56153,2991.79727 1250.37728,2965.49365 C1235.18953,2939.19528 1244.20543,2905.55953 1270.50445,2890.37822 C1296.80435,2875.19034 1330.4385,2884.20237 1345.62363,2910.50512 C1360.80919,2936.80743 1351.79592,2970.43617 1325.49558,2985.62142 Z M1323.50936,2934.75097 L1286.99315,2913.82298 C1283.6655,2911.91389 1280.98144,2913.4402 1281.0001,2917.22259 L1281.18709,2958.76258 C1281.20397,2962.5441 1283.9209,2964.0835 1287.25832,2962.18925 L1323.49515,2941.63051 C1326.82902,2939.73975 1326.83613,2936.66006 1323.50936,2934.75097 Z" id="Shape"></path>
        </g>
    </g>
</svg>