<?xml version="1.0" encoding="UTF-8"?>
<svg width="191px" height="66px" viewBox="0 0 191 66" version="1.1" xmlns="http://www.w3.org/2000/svg" xmlns:xlink="http://www.w3.org/1999/xlink">
    <!-- Generator: Sketch 52.5 (67469) - http://www.bohemiancoding.com/sketch -->
    <title>Group 17</title>
    <desc>Created with Sketch.</desc>
    <g id="Symbols" stroke="none" stroke-width="1" fill="none" fill-rule="evenodd">
        <g id="Footer-Option-C" transform="translate(-176.000000, -339.000000)">
            <g id="Group-17" transform="translate(176.000000, 339.000000)">
                <polygon id="Fill-1" fill="#FFFFFF" points="0 66 191 66 191 0 0 0"></polygon>
                <g id="Group-16" transform="translate(23.000000, 19.000000)">
                    <path d="M4.50132051,7.48917 C4.50132051,3.37847 4.42200427,2.78400333 2.07845726,2.50773667 L1.44144872,2.42880333 L1.52200427,1.44090333 L19.0397393,1.44090333 L19.6755085,6.69860333 L18.6815769,6.77630333 C18.6815769,6.77630333 18.3060641,3.74723667 15.6638419,3.02080333 C14.8297821,2.82347 13.5582436,2.78400333 11.8095684,2.78400333 L8.95046581,2.78400333 C7.75824359,2.78400333 7.75824359,2.86417 7.75824359,4.36637 L7.75824359,12.2720367 C7.75824359,13.3783367 7.87721795,13.3783367 9.06944017,13.3783367 L11.3733291,13.3783367 C13.042688,13.3783367 14.2733291,13.3006367 14.7504658,13.1415367 C15.2263632,12.98367 15.5039701,12.74687 15.7035,11.75897 L16.020765,10.1371367 L17.0543547,10.1766033 C17.0543547,10.1766033 16.8944829,12.6679367 16.8944829,14.1701367 C16.8944829,15.5934033 17.0543547,17.9651033 17.0543547,17.9651033 L16.020765,18.00457 L15.6638419,16.4629033 C15.5039701,15.75127 15.2263632,15.1580367 14.4319615,14.9607033 C13.8755085,14.8028367 12.9224744,14.7621367 11.3733291,14.7621367 L9.06944017,14.7621367 C7.87721795,14.7621367 7.75824359,14.8028367 7.75824359,15.8302033 L7.75824359,21.40487 C7.75824359,23.49907 7.87721795,24.8434033 8.51298718,25.51557 C8.99012393,25.9904033 9.82418376,26.42577 13.3190556,26.42577 C16.3789274,26.42577 17.5661923,26.3308033 18.4052094,25.8325367 C19.9568333,24.9075367 21.2246538,21.99687 21.2246538,21.99687 L22.2185855,22.2731367 L20.4314915,27.76887 L0.806918803,27.76887 L0.727602564,26.78097 L2.03879915,26.66257 C4.30302991,26.4652367 4.50132051,25.87077 4.50132051,21.7206033 L4.50132051,7.48917 Z" id="Fill-2" fill="#001A44"></path>
                    <path d="M47.6099444,19.1335633 C47.1489188,20.6369967 46.4821667,21.9566633 45.6121667,23.0974967 C44.7409274,24.2370967 43.677594,25.1472967 42.4221667,25.83303 C41.1679786,26.5162967 39.7464829,26.8591633 38.1589188,26.8591633 C36.5713547,26.8591633 35.1486197,26.5162967 33.8956709,25.83303 C32.6402436,25.1472967 31.5756709,24.2370967 30.7056709,23.0974967 C29.8356709,21.9566633 29.1689188,20.6369967 28.7078932,19.1335633 C28.2468675,17.6313633 28.0163547,16.0625633 28.0163547,14.42593 C28.0163547,12.79053 28.2468675,11.2204967 28.7078932,9.71953 C29.1689188,8.21733 29.8356709,6.89643 30.7056709,5.75559667 C31.5756709,4.61599667 32.6402436,3.70456333 33.8956709,3.02006333 C35.1486197,2.33556333 36.5713547,1.99393 38.1589188,1.99393 C39.7464829,1.99393 41.1679786,2.33556333 42.4221667,3.02006333 C43.677594,3.70456333 44.7409274,4.61599667 45.6121667,5.75559667 C46.4821667,6.89643 47.1489188,8.21733 47.6099444,9.71953 C48.0709701,11.2204967 48.3014829,12.79053 48.3014829,14.42593 C48.3014829,16.0625633 48.0709701,17.6313633 47.6099444,19.1335633 M51.241141,8.59226333 C50.4839188,6.87546333 49.4664402,5.42013 48.1862265,4.22749667 C46.9047735,3.03363 45.4002436,2.12219667 43.6713974,1.49073 C41.9437906,0.860496667 40.1046453,0.545996667 38.1589188,0.545996667 C36.211953,0.545996667 34.374047,0.860496667 32.6464402,1.49073 C30.917594,2.12219667 29.4118248,3.03363 28.1316111,4.22749667 C26.8513974,5.42013 25.8339188,6.87546333 25.0779359,8.59226333 C24.321953,10.3102967 23.9439615,12.25403 23.9439615,14.42593 C23.9439615,16.59783 24.321953,18.54403 25.0779359,20.26083 C25.8339188,21.9763967 26.8513974,23.4329633 28.1316111,24.6255967 C29.4118248,25.8194633 30.917594,26.7308967 32.6464402,27.3623633 C34.374047,27.9913633 36.211953,28.3070967 38.1589188,28.3070967 C40.1046453,28.3070967 41.9437906,27.9913633 43.6713974,27.3623633 C45.4002436,26.7308967 46.9047735,25.8194633 48.1862265,24.6255967 C49.4664402,23.4329633 50.4839188,21.9763967 51.241141,20.26083 C51.9958846,18.54403 52.3738761,16.59783 52.3738761,14.42593 C52.3738761,12.25403 51.9958846,10.3102967 51.241141,8.59226333" id="Fill-4" fill="#005391"></path>
                    <path d="M54.3716538,29.1122167 C54.3716538,29.1122167 53.4037479,30.3245833 52.9303291,30.8216167 C52.4556709,31.31865 51.9512692,31.7392167 51.4121667,32.0894833 C50.8755427,32.4372833 50.2856282,32.69875 49.646141,32.8738833 C49.0054145,33.0477833 48.2754573,33.13535 47.4562692,33.13535 C46.3545171,33.13535 45.1697308,32.9195167 43.9031496,32.49155 C42.6340897,32.06235 41.3216538,31.5862833 39.9646026,31.06335 C38.606312,30.5404167 37.2170385,30.05695 35.7967821,29.6154167 C34.374047,29.1714167 32.9599872,28.95065 31.5521239,28.95065 C30.4763974,28.95065 29.5208846,29.0776833 28.6880641,29.3329833 C27.8564829,29.5882833 26.0966538,30.60085 26.0966538,30.60085 L26.6345171,31.24465 C26.6345171,31.24465 27.7350299,30.69335 28.3237051,30.47875 C28.9123803,30.2653833 29.514688,30.15685 30.1293889,30.15685 C31.0774658,30.15685 31.9920812,30.2986833 32.876953,30.5798833 C33.7605855,30.8623167 34.6119957,31.2175167 35.4311838,31.6467167 C36.2503718,32.0746833 37.0646026,32.5445833 37.8713974,33.05395 C38.6781923,33.56455 39.4899444,34.0332167 40.3103718,34.4624167 C41.1295598,34.8916167 41.9685769,35.2468167 42.8274231,35.52925 C43.6850299,35.81045 44.5872521,35.95105 45.5353291,35.95105 C46.7895171,35.95105 47.859047,35.81045 48.7426795,35.52925 C49.626312,35.2468167 50.4145171,34.84475 51.1048162,34.3218167 C51.797594,33.7988833 52.4432778,33.1476833 53.0455855,32.3706833 C53.6466538,31.5912167 55.0507991,29.7190167 55.0507991,29.7190167 L54.3716538,29.1122167 Z" id="Fill-6" fill="#005391"></path>
                    <path d="M76.503859,11.48184 C76.503859,9.03120667 76.4257821,4.48514 75.7503547,3.29867333 C75.4715085,2.82384 74.7564231,2.54757333 73.7637308,2.46864 L72.7697991,2.38970667 L72.8503547,1.44127333 L81.5478761,1.44127333 L81.6284316,2.38970667 L80.6741581,2.46864 C79.6814658,2.54757333 78.9267222,2.90277333 78.6900128,3.41707333 C78.1323205,4.72194 78.1323205,9.26800667 78.1323205,11.48184 L78.1323205,15.9489733 C78.1323205,19.38874 77.5771068,23.0246067 75.3512949,25.39754 C73.6435171,27.2561733 70.703859,28.28354 67.7642009,28.28354 C65.0228333,28.28354 62.2827051,27.76924 60.3357393,26.10794 C58.2313803,24.36894 57.238688,21.48294 57.238688,16.7790067 L57.238688,7.44884 C57.238688,3.33814 57.1593718,2.66720667 54.8542436,2.46864 L53.860312,2.38970667 L53.9408675,1.44127333 L63.7525342,1.44127333 L63.8318504,2.38970667 L62.8788162,2.46864 C60.573688,2.66720667 60.4956111,3.33814 60.4956111,7.44884 L60.4956111,15.98844 C60.4956111,22.35244 62.482235,26.5433067 68.5586026,26.5433067 C74.3189444,26.5433067 76.503859,22.0367067 76.503859,16.0279067 L76.503859,11.48184 Z" id="Fill-8" fill="#001A44"></path>
                    <path d="M88.7445855,7.56748667 C88.7445855,3.37785333 88.6652692,2.70568667 86.3217222,2.50712 L85.3277906,2.42942 L85.4083462,1.44152 L95.3377479,1.44152 L95.4183034,2.42942 L94.4243718,2.50712 C92.0808248,2.70568667 92.0015085,3.37785333 92.0015085,7.56748667 L92.0015085,21.6422867 C92.0015085,25.83192 92.0808248,26.3856867 94.4243718,26.6619533 L95.4183034,26.7803533 L95.3377479,27.7694867 L85.4083462,27.7694867 L85.3277906,26.7803533 L86.3217222,26.6619533 C88.6652692,26.3856867 88.7445855,25.83192 88.7445855,21.6422867 L88.7445855,7.56748667 Z" id="Fill-10" fill="#001A44"></path>
                    <path d="M122.253342,11.48184 C122.253342,9.03120667 122.174026,4.48514 121.498598,3.29867333 C121.219752,2.82384 120.505906,2.54757333 119.511974,2.46864 L118.518043,2.38970667 L118.598598,1.44127333 L127.297359,1.44127333 L127.377915,2.38970667 L126.423641,2.46864 C125.429709,2.54757333 124.676205,2.90277333 124.438256,3.41707333 C123.880564,4.72194 123.880564,9.26800667 123.880564,11.48184 L123.880564,15.9489733 C123.880564,19.38874 123.32535,23.0246067 121.100778,25.39754 C119.391761,27.2561733 116.453342,28.28354 113.513684,28.28354 C110.772316,28.28354 108.030949,27.76924 106.085222,26.10794 C103.979624,24.36894 102.986932,21.48294 102.986932,16.7790067 L102.986932,7.44884 C102.986932,3.33814 102.907615,2.66720667 100.602487,2.46864 L99.6097949,2.38970667 L99.6891111,1.44127333 L109.502017,1.44127333 L109.580094,2.38970667 L108.628299,2.46864 C106.323171,2.66720667 106.243855,3.33814 106.243855,7.44884 L106.243855,15.98844 C106.243855,22.35244 108.230479,26.5433067 114.308085,26.5433067 C120.067188,26.5433067 122.253342,22.0367067 122.253342,16.0279067 L122.253342,11.48184 Z" id="Fill-12" fill="#001A44"></path>
                    <path d="M135.613543,28.2836633 C132.277303,28.2836633 130.170466,27.2562967 129.416962,26.8196967 L128.343714,21.28573 L129.296748,21.16733 C129.296748,21.16733 131.521321,27.0564967 136.130338,27.0564967 C139.466577,27.0564967 141.096278,24.8833633 141.096278,22.51043 C141.096278,20.77143 140.738115,18.8350967 137.838115,16.9764633 L134.064397,14.52583 C132.077774,13.2209633 129.773885,10.9676633 129.773885,7.72646333 C129.773885,3.97096333 132.713543,0.927096667 137.877774,0.927096667 C139.109654,0.927096667 141.572175,1.44139667 141.572175,1.44139667 L142.962688,1.67819667 L143.677774,6.50053 L142.683842,6.61893 C142.167047,4.72206333 141.096278,2.15303 137.282902,2.15303 C133.38897,2.15303 132.55491,4.72206333 132.55491,6.53999667 C132.55491,8.83276333 134.460979,10.4940633 135.930808,11.4017967 L139.109654,13.37883 C141.611833,14.9204967 144.074355,17.2132633 144.074355,20.9687633 C144.074355,25.3174967 140.777774,28.2836633 135.613543,28.2836633" id="Fill-14" fill="#001A44"></path>
                </g>
            </g>
        </g>
    </g>
</svg>