<?xml version="1.0" encoding="UTF-8"?>
<svg width="78px" height="95px" viewBox="0 0 78 95" version="1.1" xmlns="http://www.w3.org/2000/svg" xmlns:xlink="http://www.w3.org/1999/xlink">
    <!-- Generator: Sketch 52.5 (67469) - http://www.bohemiancoding.com/sketch -->
    <title>Q Overlay</title>
    <desc>Created with Sketch.</desc>
    <g id="Equius-Homepage-Options" stroke="none" stroke-width="1" fill="none" fill-rule="evenodd">
        <g id="Equius-Homepage-R8" transform="translate(-861.000000, -5455.000000)" fill="#005391" fill-rule="nonzero">
            <g id="04-Equius-Expertise" transform="translate(343.000000, 5455.000000)">
                <g id="Q-Overlay" transform="translate(518.000000, 0.000000)">
                    <path d="M64.2648649,49.5470256 C63.0324324,53.5545782 61.2500436,57.0722822 58.9243243,60.113288 C56.5952921,63.1510063 53.7527463,65.5772358 50.396687,67.4051268 C47.0439407,69.2264428 43.2439407,70.1403883 39,70.1403883 C34.7560593,70.1403883 30.9527463,69.2264428 27.603313,67.4051268 C24.2472537,65.5772358 21.4013949,63.1510063 19.0756757,60.113288 C16.7499564,57.0722822 14.9675676,53.5545782 13.7351351,49.5470256 C12.5027027,45.5427607 11.8864865,41.3609667 11.8864865,36.9983562 C11.8864865,32.6390333 12.5027027,28.4539518 13.7351351,24.4529744 C14.9675676,20.4487094 16.7499564,16.9277178 19.0756757,13.886712 C21.4013949,10.8489937 24.2472537,8.41947665 27.603313,6.59487316 C30.9527463,4.77026967 34.7560593,3.85961171 39,3.85961171 C43.2439407,3.85961171 47.0439407,4.77026967 50.396687,6.59487316 C53.7527463,8.41947665 56.5952921,10.8489937 58.9243243,13.886712 C61.2500436,16.9277178 63.0324324,20.4487094 64.2648649,24.4529744 C65.4972973,28.4539518 66.1135135,32.6390333 66.1135135,36.9983562 C66.1135135,41.3609667 65.4972973,45.5427607 64.2648649,49.5470256 M73.9719268,21.4481319 C71.9476896,16.871829 69.2277245,12.9924919 65.8054054,9.81340797 C62.3797733,6.63103647 58.357803,4.20151939 53.7361813,2.51828158 C49.1178727,0.838331334 44.2013949,0 39,0 C33.7952921,0 28.8821273,0.838331334 24.2638187,2.51828158 C19.642197,4.20151939 15.6169137,6.63103647 12.1945946,9.81340797 C8.7722755,12.9924919 6.05231037,16.871829 4.03138622,21.4481319 C2.01046207,26.0277222 1,31.2089386 1,36.9983562 C1,42.7877738 2.01046207,47.9755653 4.03138622,52.5518681 C6.05231037,57.1248834 8.7722755,61.0075081 12.1945946,64.186592 C15.6169137,67.3689635 19.642197,69.7984806 24.2638187,71.4817184 C28.8821273,73.1583811 33.7952921,74 39,74 C44.2013949,74 49.1178727,73.1583811 53.7361813,71.4817184 C58.357803,69.7984806 62.3797733,67.3689635 65.8054054,64.186592 C69.2277245,61.0075081 71.9476896,57.1248834 73.9719268,52.5518681 C75.9895379,47.9755653 77,42.7877738 77,36.9983562 C77,31.2089386 75.9895379,26.0277222 73.9719268,21.4481319" id="Fill-4"></path>
                    <path d="M76.1704404,76.438513 C76.1704404,76.438513 73.5629842,79.7290345 72.2876343,81.0780479 C71.0089458,82.4270613 69.6501305,83.5685342 68.1978342,84.5192037 C66.752215,85.4631783 65.1630356,86.172833 63.4403116,86.6481677 C61.714249,87.120155 59.7478064,87.3578224 57.5409836,87.3578224 C54.5729572,87.3578224 51.3812438,86.7720226 47.969182,85.6104651 C44.550443,84.4455603 41.0148525,83.1534531 37.359072,81.7341438 C33.6999529,80.3148344 29.9573685,79.0026427 26.1313188,77.8042636 C22.2985918,76.5991896 18.4892351,76 14.6965715,76 C11.798656,76 9.22458588,76.3447851 6.98103839,77.0377026 C4.74082952,77.7306202 0,80.4788584 0,80.4788584 L1.44895775,82.2262156 C1.44895775,82.2262156 4.41364551,80.7299154 5.99948637,80.147463 C7.58532723,79.568358 9.20789282,79.2737844 10.8638445,79.2737844 C13.417883,79.2737844 15.8817789,79.6587385 18.2655481,80.4219521 C20.6459787,81.188513 22.9396054,82.1525722 25.1464281,83.3174771 C27.3532509,84.4790345 29.5467192,85.7544045 31.7201558,87.1368922 C33.8935924,88.5227273 36.0803835,89.7947498 38.2905449,90.9596547 C40.4973676,92.1245595 42.7576082,93.0886187 45.0712665,93.8551797 C47.3815863,94.6183932 49.812096,95 52.3661345,95 C55.7448102,95 58.6260326,94.6183932 61.0064632,93.8551797 C63.3868938,93.0886187 65.5102513,91.9973573 67.3698583,90.5780479 C69.2361426,89.1587385 70.9755596,87.3912967 72.5981252,85.2824172 C74.2173522,83.1668428 78,78.0854475 78,78.0854475 L76.1704404,76.438513 Z" id="Fill-6"></path>
                </g>
            </g>
        </g>
    </g>
</svg>